<?xml version="1.0" encoding="utf-8"?>
<!-- Generator: Adobe Illustrator 24.1.0, SVG Export Plug-In . SVG Version: 6.00 Build 0)  -->
<svg version="1.1" id="Layer_1" xmlns="http://www.w3.org/2000/svg" xmlns:xlink="http://www.w3.org/1999/xlink" x="0px" y="0px"
	 viewBox="0 0 525 541" style="enable-background:new 0 0 525 541;" xml:space="preserve">
<style type="text/css">
	.st0{fill:#F0EEEE;}
	.st1{fill:none;stroke:#000000;stroke-width:2;}
	.st2{fill:#ED7171;}
	.st3{fill:#171C51;}
	.st4{fill:#F4AEB9;}
	.st5{fill:#FFCA7C;}
	.st6{opacity:0.25;fill:#FFFFFF;enable-background:new    ;}
	.st7{fill:#DD9743;}
	.st8{fill:#E595A4;}
	.st9{fill:#FECAD0;}
	.st10{fill:none;stroke:#E45E8E;stroke-width:1.018;stroke-linecap:round;stroke-miterlimit:9;}
	.st11{fill:none;stroke:#171C51;stroke-width:1.018;stroke-linecap:round;stroke-miterlimit:9;}
	.st12{fill:none;stroke:#171C51;stroke-width:1.528;stroke-linecap:round;stroke-linejoin:round;}
	.st13{fill:#96A4CD;}
	.st14{fill:#7389BB;}
	.st15{fill:#E89E4D;}
	.st16{fill:none;stroke:#DD9743;stroke-miterlimit:9;}
	.st17{fill:none;stroke:#171C51;stroke-width:1.018;stroke-linecap:round;stroke-linejoin:round;}
	.st18{fill:none;stroke:#D1D1D1;stroke-miterlimit:10;}
	.st19{fill:none;stroke:#BCBCBC;stroke-width:1.5;stroke-miterlimit:10;stroke-dasharray:5.03,5.03;}
	.st20{fill:#FFFFFF;}
	.st21{fill:#020000;}
	.st22{fill:#FF0000;}
	.st23{fill:#ECF1FF;}
</style>
<g id="Layer_1-2">
	<path class="st0" d="M326.1,305.9c-8.1,0-14.6,6.5-14.6,14.6c0,8.3,7,14.9,16,14.2c8-0.7,13.9-6.6,13.9-14.2
		C340.7,312.5,334.4,305.9,326.1,305.9z"/>
	<path class="st0" d="M318,209.4c0.7,4.9,5.6,6.9,10.1,6.2c8.4-1.7,8-13.9,0.3-16C320.8,198,316.6,204.6,318,209.4z"/>
	<path class="st0" d="M336.9,370.1c-1.1-1.4-2.4-2.7-3.8-3.8c-10.8-6.9-25.8,5.9-18.1,18c1.7,2.4,6.3,5.9,11.5,5.6
		C335.5,389.2,342.8,379.5,336.9,370.1z"/>
	<path class="st0" d="M316.6,431.9c-1.4,7.6,4.9,12.1,11.2,11.1c3.5-0.6,6.2-3.2,7-6.6C337.2,422.9,318.7,421.2,316.6,431.9z"/>
	<path class="st0" d="M365.1,405.5c0-9.7-12.2-13.5-18.8-7.3c-7.3,7.3-0.7,19.1,8.4,18.4c4.2-0.3,5.9-1.7,7-2.8
		C363.7,411.6,364.9,408.6,365.1,405.5z"/>
	<path class="st0" d="M352.2,335.8c-7.3,0.8-12.7,7.3-11.9,14.7c0,0.2,0,0.4,0.1,0.6c0.7,7.6,7.3,12.8,16,11.5
		c6.2-0.7,11-5.6,11.5-11.8C368.9,340.6,359.9,335.1,352.2,335.8z"/>
	<path class="st0" d="M383.9,274.7c3.5-0.3,4.9-1,6.3-2.4c3.5-3.5,4.2-11.1,0.3-14.9c-4.2-4.2-11.5-4.2-15.3,0
		C368.2,264.3,374.5,275.7,383.9,274.7z"/>
	<path class="st0" d="M347,463.9c0.7,3.5,4.5,5.9,8.4,5.2c2.7-0.5,4.9-2.5,5.6-5.2C363.4,452.4,345.2,452.8,347,463.9z"/>
	<path class="st0" d="M326.8,154.9c5.2-0.7,3.8-8.3-1-8C320.1,146.9,320.5,156,326.8,154.9z"/>
	<path class="st0" d="M308.3,405.5c0-9.7-12.2-13.5-18.8-7.3c-7.3,7.3-0.7,19.1,8.4,18.4c4.2-0.3,5.9-1.7,7-2.8
		C306.5,411.8,308.3,408.3,308.3,405.5z"/>
	<path class="st0" d="M290.2,463.9c0.7,3.5,4.5,5.9,8.4,5.2c2.7-0.5,4.9-2.5,5.6-5.2C306.5,452.4,288.4,452.4,290.2,463.9z"/>
	<path class="st0" d="M355.3,305.6c7.1-0.2,12.7-6,12.5-13.1v-0.1c-0.1-7.2-6-13-13.2-12.9c-7.2,0.1-13,6-12.9,13.2
		C341,300.4,347.3,305.9,355.3,305.6z"/>
	<path class="st0" d="M295.4,335.4c-7.3,0.8-12.7,7.3-11.9,14.7c0,0.2,0,0.4,0.1,0.6c0.7,7.6,7.3,12.8,16,11.5
		c6.2-0.7,11-5.6,11.5-11.8C312.1,339.9,303.1,334.7,295.4,335.4z"/>
	<path class="st0" d="M356,185.1c6.6-1.4,4.9-10.1,0.7-11.5C346.6,170.9,345.6,187.6,356,185.1z"/>
	<path class="st0" d="M326.8,275.7c6.3-0.2,11.3-5.5,11.2-11.8c0-16-24.1-15.3-24.1,0c-0.2,6.4,4.9,11.7,11.3,11.9
		C325.7,275.8,326.2,275.8,326.8,275.7z"/>
	<path class="st0" d="M344.5,234.8c-0.7,7.3,4.9,12.1,11.5,11.1c4.9-0.7,7.3-3.8,8-8c0.7-5.2-2.4-10.4-8.4-11.1
		c-5-1.1-9.9,2.1-11,7.1C344.6,234.2,344.6,234.5,344.5,234.8z"/>
	<path class="st0" d="M299.2,185.1c6.6-1.4,4.9-10.1,0.7-11.5C289.8,170.5,288.8,187.2,299.2,185.1z"/>
	<path class="st0" d="M437.9,152.5c0.5,0.6,1.3,0.9,2.1,0.7c1.4-0.3,1.4-1,1.4-2.4C441.4,148,435.9,149,437.9,152.5z"/>
	<path class="st0" d="M419.1,409c2.8-7.6-4.9-13.5-11.5-11.5c-9.1,3.5-5.9,18,4.5,16.7C416.3,413.5,418.1,411.5,419.1,409z"/>
	<path class="st0" d="M409.4,456.9c-5.9,1-5.2,12.5,2.4,10.8C419.8,465.9,416,455.9,409.4,456.9z"/>
	<path class="st0" d="M420.9,345.8c-4.2-12.1-24.4-6.6-19.9,6.6c1,3.8,4.9,7.6,11.5,6.6C418.1,358.7,423.3,353.5,420.9,345.8z"/>
	<path class="st0" d="M374.5,436.1c0.7,4.9,5.6,6.9,10.1,6.2c8.4-1.7,8-13.9,0.3-16c-4.4-1.3-9,1.2-10.3,5.6
		C374.3,433.3,374.2,434.7,374.5,436.1z"/>
	<path class="st0" d="M394,377.1c-0.3-14.6-23-14.2-23,0.3c0,6.6,5.6,11.5,12.2,11.1c6.1-0.1,10.9-5.1,10.8-11.2c0,0,0,0,0,0
		C394,377.3,394,377.2,394,377.1z"/>
	<path class="st0" d="M388.5,310.1c-11.9-5.9-21.6,6.9-17.1,17c2.1,4.5,6.6,7.3,13.2,6.2c4.9-0.7,8-4.9,8.7-6.2
		C397.5,318.8,392.6,312.2,388.5,310.1z"/>
	<path class="st0" d="M384.6,215c2.1-0.6,4-2,5.2-3.8c2.1-5.2-1-8.7-3.8-10.1C373.8,195.9,371,217.8,384.6,215z"/>
	<path class="st0" d="M411.8,243.8c9.8-1,8.7-16-1-16C400.3,228.5,401.3,244.8,411.8,243.8z"/>
	<path class="st0" d="M408,176.1c-2.8,2.8-0.3,8.3,4.2,8C420.5,183,413.5,170.5,408,176.1z"/>
	<path class="st0" d="M411.8,302.8c6.3-0.3,9.8-4.9,9.8-10.1c0-11.1-15-12.8-19.2-4.9c-2.8,4.7-1.2,10.8,3.5,13.6
		C407.6,302.5,409.7,303,411.8,302.8z"/>
	<path class="st0" d="M383.9,154.6c1.2-0.2,2.1-1.2,2.1-2.4c0.7-6.2-8-4.9-6.6,0.3C379.7,153.9,381.1,155.3,383.9,154.6z"/>
	<path class="st0" d="M183.8,241C184.5,241,184.5,240.7,183.8,241c6.6-0.7,5.6-10.1-0.3-10.1S177.2,241,183.8,241z"/>
	<path class="st0" d="M181.1,463.2c0.3,1.4,2.1,1.7,3.8,1.4c0.7-0.3,1.4-0.7,1.4-1.4C188,457.6,179.7,458.7,181.1,463.2z"/>
	<path class="st0" d="M176.9,347.6c-1,5.6,3.8,8.7,8,8c3.5-0.7,4.9-2.8,5.2-4.9C192.2,341.3,178.6,339.9,176.9,347.6z"/>
	<path class="st0" d="M184.5,181c1.4-0.3,1.4-1,1.4-2.1c-0.3-2.8-5.9-1.7-3.8,1.4C182.4,181,183.1,181.3,184.5,181z"/>
	<path class="st0" d="M185.2,400.3c-8.4-1.7-8.4,12.1,0,10.4C191.2,409,189.1,401,185.2,400.3z"/>
	<path class="st0" d="M212.4,212.6c6.6-0.3,5.6-8.7,1.4-10.1C206.5,200.4,204.8,212.9,212.4,212.6z"/>
	<path class="st0" d="M204.8,264.3c0,4.9,4.5,7.6,8.4,7.3c4.9-0.3,7-3.5,7-7.6C219.7,254.9,204.4,253.9,204.8,264.3z"/>
	<path class="st0" d="M184.9,299c8.4-1,7-13.2-0.7-12.8C174.8,286.1,175.8,299.7,184.9,299z"/>
	<path class="st0" d="M212.8,152.8c1.4-0.3,1.4-1,1.4-2.1c-0.3-2.8-5.9-1.7-3.8,1.4C210.9,152.9,211.9,153.2,212.8,152.8z"/>
	<path class="st0" d="M155.3,373.3c-5.6,0.3-5.2,9,0.7,8.3C161.5,380.6,160.1,372.9,155.3,373.3z"/>
	<path class="st0" d="M127.7,351.1c6.3-1.7-3.8-8.3-3.5-2.1C124.6,351.1,125.6,351.7,127.7,351.1z"/>
	<path class="st0" d="M156,209.4c1.4-0.3,1.4-1,1.4-2.1c-0.3-2.8-5.9-1.7-3.8,1.4C154.1,209.5,155.1,209.7,156,209.4z"/>
	<path class="st0" d="M124.9,406.6c0.4,0.8,1.3,1.1,2.1,0.7c0,0,0,0,0,0h0c1.7-0.3,1.7-1,1.7-1.7
		C128.8,402.4,123.2,403.5,124.9,406.6z"/>
	<path class="st0" d="M124.6,292.7c0,1.7,1.4,2.4,3.5,2.1C134,293.1,124.2,286.1,124.6,292.7z"/>
	<path class="st0" d="M156,268.1c5.6-0.7,3.8-8-0.7-8C150.4,260.5,150,268.8,156,268.1z"/>
	<path class="st0" d="M152.8,434c0,1.7,1.4,2.4,3.5,2.1C162.2,434.4,152.1,427.4,152.8,434z"/>
	<path class="st0" d="M152.1,317.4c-2.8,2.8-0.3,8.3,4.2,8C164.7,324,157.7,311.8,152.1,317.4z"/>
	<path class="st0" d="M237.5,175.8c-2.8,2.8-0.3,8.3,4.2,8C250.1,182.4,243.1,170.5,237.5,175.8z"/>
	<path class="st0" d="M274.8,309.7c-11.9-5.9-21.6,6.9-17.1,17c2.1,4.5,6.6,7.3,13.2,6.2c4.9-0.7,8-4.9,8.7-6.2
		C283.9,318.8,279.3,311.8,274.8,309.7z"/>
	<path class="st0" d="M220.8,318.8c-1.4-8-15.3-9-17.4,0c-1.4,7.3,4.5,11.8,10.8,10.4C219,328.5,221.8,324,220.8,318.8z"/>
	<path class="st0" d="M260.9,435.7c0.7,4.9,5.6,6.9,10.1,6.2c8.4-1.7,8-13.9,0.3-16c-4.5-1.2-9.1,1.4-10.3,5.9
		C260.7,433.2,260.6,434.5,260.9,435.7z"/>
	<path class="st0" d="M270.3,154.2c1.2-0.2,2.1-1.2,2.1-2.4c0.7-6.2-8-4.9-6.6,0.3C266.1,153.5,267.5,154.9,270.3,154.2z"/>
	<path class="st0" d="M280.4,377.1c-0.3-14.6-23-14.2-23,0.3c0,6.6,5.6,11.5,12.2,11.1C275.9,387.8,280.4,383.3,280.4,377.1z"/>
	<path class="st0" d="M287.7,234.8c-0.7,7.3,4.9,12.1,11.5,11.1c4.9-0.7,7.3-3.8,8-8c0.7-5.2-2.4-10.4-8.4-11.1
		C294,225.4,288.4,228.5,287.7,234.8z"/>
	<path class="st0" d="M270.3,274.7c3.5-0.3,4.9-1,6.3-2.4c3.5-3.5,4.2-11.1,0.3-14.9c-4.2-4.2-11.5-4.2-15.3,0
		C254.6,263.9,260.9,275.7,270.3,274.7z"/>
	<path class="st0" d="M298.5,305.2c7.1-0.2,12.7-6,12.6-13.1c0,0,0,0,0,0V292c-0.1-7.2-6-13-13.2-12.9c-7.2,0.1-13,6-12.9,13.2l0,0
		C284.2,300,290.5,305.9,298.5,305.2z"/>
	<path class="st0" d="M271,214.6c2.1-0.6,4-2,5.2-3.8c2.1-5.2-1-8.7-3.8-10.1C260.5,195.9,257.4,217.4,271,214.6z"/>
	<path class="st0" d="M241.7,302.1c6.3-0.3,9.8-4.9,9.8-10.1c0-11.1-15-12.8-19.2-4.9c-3,4.4-1.8,10.4,2.6,13.4
		C236.9,301.9,239.3,302.5,241.7,302.1z"/>
	<path class="st0" d="M219.7,380.6c0.7-2,0.7-4.2,0-6.2c-1.4-3.5-6.3-5.9-10.8-4.5c-6.6,2.4-5.6,12.8,0,14.9
		c1.7,0.5,3.5,0.6,5.2,0.3C216.5,384.2,218.4,382.6,219.7,380.6z"/>
	<path class="st0" d="M213.1,439.6c7-1,6.3-11.8-1-11.5C204.8,428.1,204.4,440.6,213.1,439.6z"/>
	<path class="st0" d="M238.9,456.9c-5.9,1-5.2,12.5,2.4,10.8C249.4,465.6,245.5,455.5,238.9,456.9z"/>
	<path class="st0" d="M248.7,408.7c2.8-7.6-4.9-13.5-11.5-11.5c-9.1,3.5-5.9,18,4.5,16.7C245.9,413.2,248,411.5,248.7,408.7z"/>
	<path class="st0" d="M241.7,243.4c9.8-1,8.7-16-1-16C229.9,228.2,230.9,244.8,241.7,243.4z"/>
	<path class="st0" d="M250.4,345.5c-4.2-12.1-24.4-6.6-19.9,6.6c1,3.8,4.9,7.6,11.5,6.6C248,358.3,252.9,353.1,250.4,345.5z"/>
	<path class="st1" d="M424,538H66"/>
	<path class="st2" d="M265.9,538l0.7,2.4L265.9,538l-7.3-22.8l-1.9,22.8H201l5.3-152.5h4.2l24.2-0.2h4.3l21.6-0.2h1.7l24.2-0.2h1.7
		l6.3-0.1c0.4,0.9,0.7,1.7,1.1,2.6c2.9,7.3,4.8,14.9,5.9,22.7c1.9,13.3,2.3,27.5,6.1,47.5c2,10.7,9.4,42.5,18.3,80.5L265.9,538
		L265.9,538L265.9,538z"/>
	<path class="st3" d="M243.3,159c-13.3-3.6-23.5,15.9-20.4,40c3.1,24.2-17.7,47.3-15.3,57.2c2.3,9.9,48.6,23.7,79.6,23.4
		c30.9-0.3,40.6-13.8,34.8-23.4c-5.7-9.6-14.8-19-14-48C308.7,179.3,288.6,125.2,243.3,159z"/>
	<path class="st4" d="M179.5,297.1l-17.2,38.5l-26.5-62.2c0,0-3.4-21.2-6.1-27.2s-1.8-13.9-5.5-15.1c-3.6-1.2-4.9,5.3-4.9,10.9
		c0,3.7-0.3,7.3-0.9,10.9c0,0-15.2-13.3-16.1-17.4c-0.9-4.2-0.4-18.3-3.8-20.2c-3.4-1.8-7.2,2.3-7.9,14.4
		c-0.8,12.1,23.5,47.3,23.5,47.3l17.8,86.3l49.9,9.1l29.6-48.6L179.5,297.1z"/>
	<path class="st5" d="M332.4,308.4L314,321.8l-1.7,1.2l-13.7,10l-2.1,54.3l-8.4-0.2h-1.7l-24.2-0.5h-1.7l-24.2-0.5h-1.7l-24.2-0.5
		h-4.2c0,0,1-13.3-2.9-32.6c-3.9-19.4,1.5-32.7,1.5-32.7l-25.5-23.1l13.1-20.3c4-6.2,9.6-11.2,16.2-14.4c0.5-0.3,1.1-0.6,1.7-0.8
		c1.9-0.8,3.9-1.5,5.9-2l18.3-4.7l1-0.3l0.7-0.2l6.2-1.6l18,0.1h1.7l19.6,0.1l4.6,2.4l1.7,0.9l16.5,8.6c2.8,1.4,5.3,3.2,7.7,5.2
		c0.6,0.5,1.2,1,1.7,1.6c4,3.9,7.2,8.7,9.3,13.9L332.4,308.4z"/>
	<path class="st6" d="M210.5,261.6v123.9h-1.7V262.4C209.3,262.1,209.9,261.9,210.5,261.6z"/>
	<path class="st6" d="M236.4,254.5v131.6h-1.8V254.9l1-0.2L236.4,254.5z"/>
	<path class="st6" d="M262.2,252.9v133.7h-1.7V252.9H262.2z"/>
	<path class="st6" d="M288.1,256.3v130.8h-1.7V255.4L288.1,256.3z"/>
	<path class="st6" d="M314,271.8v50l-1.7,1.2v-52.8C312.9,270.7,313.5,271.2,314,271.8z"/>
	<path class="st7" d="M288.2,256.3c-5.4,11-19.5,17.4-36.9,16.2c-14.6-1-16.4-10.7-15.6-17.9l6.9-1.8l39.3,0.1L288.2,256.3z"/>
	<path class="st4" d="M281.8,253c-5.3,9-15,14.5-25.5,14.3c-18.3,0-13.8-14.4-13.8-14.4l5.2-1.7l-0.3-8.9l-0.5-13l31.2-9.5
		c-0.8,1.7-1.2,3.5-1.4,5.3c-1.4,9.9,0.1,26.1,0.1,26.1L281.8,253z"/>
	<path class="st8" d="M278.2,219.7c-0.8,1.7-1.2,3.5-1.4,5.3c-8.8,17.6-23.5,17.8-29.3,17.1l-0.5-13L278.2,219.7z"/>
	<path class="st9" d="M243.9,172.8c2.9,15.3,35.7,26,38,27.7c1.4,1,1.8,3.5,1.9,5.3c0,0.2,0.2,0.4,0.4,0.4c0.2,0,0.3-0.1,0.3-0.3
		c0.8-2.3,2.5-5.5,5.3-5.8c4.3-0.5,8.5,5,6.1,11.5c-2.5,6.6-12.4,3.1-12.4,3.1s-8.1,19.7-26.7,20.2c-18.6,0.5-22.7-15.2-21.3-24.9
		s1.3-14.5,0.5-20.2C235.2,184.2,242.3,180.2,243.9,172.8z"/>
	<path class="st10" d="M291.3,203.9c-1.6,0.5-3.3,4.7-2.6,6.7"/>
	<path class="st11" d="M254,216.1l-2.2-1.3c-1.4-0.9-2-2.6-1.4-4.2l3.5-8.2"/>
	<path d="M261.9,206.3c-0.1,1,0.6,1.8,1.5,2c1-0.1,1.6-1,1.5-2v0c0.1-1-0.6-1.8-1.5-2C262.5,204.5,261.9,205.4,261.9,206.3z"/>
	<path d="M243.3,205.2c-0.2,0.8,0.3,1.7,1.1,1.9c0.8,0.2,1.7-0.3,1.9-1.1c0.1-0.2,0.1-0.5,0-0.7c0.1-1-0.6-1.8-1.5-2
		C243.9,203.4,243.3,204.3,243.3,205.2z"/>
	<path class="st12" d="M270,195.8c0,0-3.9-4.3-9.9-1.2"/>
	<path class="st12" d="M239.8,195.6c0,0,3.8-4.2,10-0.3"/>
	<path class="st11" d="M256.3,223.2c0,0,5.1,2.1,9.2-1.5"/>
	<path class="st13" d="M200.4,384.7h-77c-1.3,0.1-2.4-0.8-2.8-2l-16.5-59.9c-0.4-1.5,0.5-3.1,2-3.5l1-0.3h77.1L200.4,384.7z"/>
	<path class="st14" d="M200.1,384.7h61.1c1.5,0,2.8-1.3,2.8-2.8v-1c0-1.5-1.3-2.8-2.8-2.8h-61.1c-1.5,0-2.8,1.3-2.8,2.8v1
		C197.3,383.4,198.6,384.7,200.1,384.7z"/>
	<path class="st14" d="M180.9,322.7l16.2,58.9c0.4,1.5,1.9,2.4,3.4,2l1-0.3c1.5-0.4,2.4-1.9,2-3.4L187.3,321c-0.4-1.5-1.9-2.4-3.4-2
		l-1,0.3C181.4,319.7,180.5,321.2,180.9,322.7L180.9,322.7z"/>
	<path class="st4" d="M360.2,401.9c0,14.1-11.4,25.5-25.5,25.5c-5.2,0-10.2-1.6-14.5-4.5l-42.8-29.5c0,0-23.3,5.1-33.8,4.2
		c-10.5-1-21.7-6.5-21.8-8.7s42.2-6.6,40.2-8.3s-20.9-1.9-21.1-6c-0.3-4.1,4.5-5.5,12.4-6c7.9-0.5,17.9,3.5,17.9,3.5l42.9,5.9
		l-12.2-35.5l-3.3-9.6l33.8-24.5l2.2,7.1l24.4,78.8C359.8,396.8,360.2,399.3,360.2,401.9z"/>
	<path class="st15" d="M332.4,308.4l2.2,7.2l-32.7,27l-3.3-9.6L332.4,308.4z"/>
	<path class="st16" d="M314,378.1l18.4,2.4"/>
	<path class="st3" d="M212.5,381.4c0,0.6-0.4,1-1,1c-0.5,0-1-0.5-1-1c0-0.6,0.4-1,1-1S212.5,380.8,212.5,381.4z"/>
	<path class="st3" d="M216.6,381.4c0,0.6-0.4,1-1,1s-1-0.4-1-1s0.4-1,1-1S216.6,380.8,216.6,381.4z"/>
	<path class="st17" d="M266.7,540.5l-0.1-0.2l-0.7-2.3l-20.7-66.8"/>
	<path class="st17" d="M210.5,351.3c11.4,10.5,31.6,12.1,31.6,12.1"/>
	<path class="st17" d="M298.6,333L284,308.4"/>
	<path class="st17" d="M205,320.2c6.2-12.4,7.5-28.5,7.5-28.5"/>
	<path class="st18" d="M36.3,273.1v-2.5"/>
	<path class="st19" d="M36.5,265.6c4-122,104.1-219.6,227-219.6c123.8,0,224.4,99,227.1,222.1"/>
	<path class="st18" d="M490.6,270.6v2.5"/>
	
		<image style="overflow:visible;opacity:0.15;enable-background:new    ;" width="99" height="100" xlink:href="71C8EC38.png"  transform="matrix(0.99 0 0 0.99 213.495 0)">
	</image>
	<path class="st20" d="M263.5,80.2c18.8,0,34.1-15.3,34.1-34.1c0-18.8-15.3-34.1-34.1-34.1c-18.8,0-34.1,15.3-34.1,34.1
		S244.7,80.2,263.5,80.2L263.5,80.2L263.5,80.2z"/>
	<path d="M257.3,44.7c0-0.6-0.4-1-1-1H251c-0.6,0-1,0.4-1,1V59h7.3V44.7z"/>
	<path d="M276.9,39c0-0.6-0.4-1-1-1h-5.3c-0.6,0-1,0.4-1,1v20h7.3V39z"/>
	<path d="M267.1,46.6c0-0.6-0.4-1-1-1h-5.3c-0.6,0-1,0.4-1,1V59h7.3V46.6z"/>
	<path d="M277.8,61h-28.7c-0.6,0-1,0.4-1,1s0.4,1,1,1h28.7c0.6,0,1-0.4,1-1S278.4,61,277.8,61z"/>
	<path class="st21" d="M255.2,40.8L255.2,40.8c1.9-0.2,3.7-0.6,5.5-1.3c4.1-1.4,7.9-3.8,11-6.8l0.1-0.1v1.6c0,0.6,0.4,1,1,1
		s1-0.4,1-1v-4c0-0.6-0.4-1-1-1h-4c-0.6,0-1,0.4-1,1s0.4,1,1,1h1.6c-2.9,2.8-6.4,5-10.2,6.3c-1.6,0.6-3.3,1-5,1.2
		c-0.5,0-0.9,0.5-0.9,1c0,0,0,0.1,0,0.1c-0.1,0.5,0.3,0.9,0.7,1C255.1,40.8,255.1,40.8,255.2,40.8z"/>
	
		<image style="overflow:visible;opacity:0.15;enable-background:new    ;" width="99" height="100" xlink:href="71C8EC39.png"  transform="matrix(0.99 0 0 0.99 361.495 54)">
	</image>
	<path class="st20" d="M411.4,134.3c18.8,0,34.1-15.3,34.1-34.1c0-18.8-15.3-34.1-34.1-34.1c-18.8,0-34.1,15.3-34.1,34.1
		S392.6,134.3,411.4,134.3L411.4,134.3L411.4,134.3z"/>
	<path class="st22" d="M422.9,102.7c-5.4,0.2-10.7,1.6-15.5,4.1l-6,3.5c-1.6,0.9-3.6,0.4-4.6-1.2l-3.1-5.3c-0.9-1.6-0.4-3.6,1.2-4.6
		l5-2.9c0.2-0.2,0.6-0.1,0.7,0.1c0,0,0,0.1,0.1,0.1l3.9,6.8c0.2,0.3,0.5,0.4,0.8,0.2c0.3-0.2,0.4-0.5,0.2-0.8l-4-6.9
		c-0.2-0.2-0.1-0.6,0.1-0.8c0,0,0.1,0,0.1,0c4.1-2.9,7.6-6.6,10.3-10.8c0.7-1.2,2.2-1.5,3.4-0.8c0.4,0.2,0.7,0.5,0.9,0.9l8.4,14.6
		c0.8,1.1,0.5,2.6-0.5,3.3C423.9,102.5,423.4,102.7,422.9,102.7z M424,92.6c0.3-1.8-0.7-3.6-2.4-4.2c-0.3-0.1-0.7,0.1-0.8,0.4
		c-0.1,0.2,0,0.4,0.1,0.5c0.7,1.2,1.3,2.3,2,3.5c0.1,0.3,0.5,0.4,0.8,0.2C423.9,93,424,92.8,424,92.6z M410,114l-2.9-5
		c-0.1-0.3-0.5-0.4-0.7-0.2c0,0-0.1,0-0.1,0c-1.6,0.9-1.6,0.9-3.7,2.1c-0.3,0.1-0.4,0.5-0.2,0.7c0,0,0,0.1,0,0.1l2.9,5
		c0.4,0.6,1,1,1.7,1c0.7,0,0.9-0.2,2.3-1C410.2,116.1,410.5,114.9,410,114z M428.4,88c0.3-0.2,0.4-0.5,0.2-0.8
		c-0.2-0.3-0.5-0.4-0.8-0.2l-1.6,0.9c-0.3,0.2-0.4,0.5-0.2,0.8c0.1,0.2,0.3,0.3,0.5,0.3C426.7,89,426.7,89,428.4,88z M422.8,84.9
		l0.4-1.4c0.1-0.3-0.1-0.6-0.4-0.7c-0.3-0.1-0.6,0.1-0.7,0.4l0,0l0,0l-0.4,1.4c-0.1,0.3,0.1,0.7,0.5,0.8c0,0,0.1,0,0.1,0
		C422.5,85.3,422.7,85.1,422.8,84.9z M429.6,94.5c0.1-0.3,0-0.6-0.3-0.7c0,0-0.1,0-0.1,0l-1.4-0.4c-0.3-0.1-0.6,0.1-0.7,0.4
		c-0.1,0.3,0.1,0.6,0.4,0.7c1.6,0.4,1.5,0.4,1.6,0.4C429.3,94.8,429.5,94.7,429.6,94.5L429.6,94.5L429.6,94.5z"/>
	
		<image style="overflow:visible;opacity:0.15;enable-background:new    ;" width="99" height="100" xlink:href="71C8EC3F.png"  transform="matrix(0.99 0 0 0.99 426.495 153)">
	</image>
	<path class="st20" d="M476.2,233.2c18.8,0,34.1-15.3,34.1-34.1c0-18.8-15.3-34.1-34.1-34.1c-18.8,0-34.1,15.3-34.1,34.1l0,0l0,0
		C442.1,217.9,457.4,233.2,476.2,233.2z"/>
	<path d="M485.7,205.5c0.1-2.5-1.1-4.9-3.2-6.4c-1.8-1.1-3.7-1.9-5.7-2.4c-4.1-1.2-5.3-1.9-5.3-3.8c0-2.2,2.8-2.9,5.2-2.9
		c1.8,0,3.5,0.4,5,1.4l2.5-3.9c-1.8-1.2-3.9-1.8-6.1-2v-3.6h-4.6v3.9c-4.1,0.9-6.7,3.6-6.7,7.2c-0.1,2.4,1.1,4.7,3.1,6
		c1.7,1,3.5,1.8,5.4,2.2c4,1.2,5.6,1.9,5.6,4.4c0,2-2.7,2.8-5,2.8c-2.2,0-4.3-0.9-5.9-2.4l-3.3,3.2c1.8,1.9,4.2,3.1,6.8,3.6v3.8h4.6
		v-3.7C482.8,212.1,485.7,209.4,485.7,205.5z"/>
	
		<image style="overflow:visible;opacity:0.15;enable-background:new    ;" width="99" height="100" xlink:href="71C8EC3A.png"  transform="matrix(0.99 0 0 0.99 61.495 52)">
	</image>
	<path class="st20" d="M111.7,133c18.8,0,34.1-15.3,34.1-34.1s-15.3-34.1-34.1-34.1S77.6,80.1,77.6,98.9l0,0
		C77.6,117.7,92.9,133,111.7,133L111.7,133z"/>
	<path class="st22" d="M118.9,99.7l-0.6-10.3h-4.9V94h-2.1v-4.6h-7.9V94h-2.1v-4.6h-4.9l-1.1,18.4c-0.2,2.8,1.9,5.3,4.8,5.5
		c0,0,0,0,0,0c0.1,0,0.3,0,0.4,0H112c-0.7-1.3-1-2.8-1-4.3C111,104.4,114.4,100.5,118.9,99.7z"/>
	<path class="st22" d="M103.5,87.4c0-2.2,1.7-3.9,3.9-3.9s3.9,1.7,3.9,3.9v2h2.1v-2c0-3.3-2.7-6-6-6s-6,2.7-6,6v2h2.1V87.4z"/>
	<path class="st22" d="M127.9,109c0-4.1-3.3-7.4-7.4-7.4s-7.4,3.3-7.4,7.4s3.3,7.4,7.4,7.4l0,0C124.6,116.4,127.9,113.1,127.9,109
		C127.9,109,127.9,109,127.9,109C127.9,109,127.9,109,127.9,109z M119.3,112.7l-3.3-3.8l1.5-1.4l1.9,2.1l3.9-4l1.5,1.4L119.3,112.7z
		"/>
	
		<image style="overflow:visible;opacity:0.15;enable-background:new    ;" width="100" height="100" xlink:href="71C8EC3B.png"  transform="matrix(0.99 0 0 0.99 0.5 153)">
	</image>
	<path class="st20" d="M51,233.2c18.8,0,34.1-15.3,34.1-34.1S69.8,165,51,165s-34.1,15.3-34.1,34.1c0,0,0,0,0,0l0,0
		C16.9,217.9,32.2,233.2,51,233.2z"/>
	<path d="M51,195.8c3.2,0,5.8-2.6,5.8-5.8c0-3.2-2.6-5.8-5.8-5.8c-3.2,0-5.8,2.6-5.8,5.8C45.2,193.2,47.8,195.8,51,195.8L51,195.8
		L51,195.8z"/>
	<path d="M62.8,195.8c2,0,3.7-1.7,3.7-3.7s-1.7-3.7-3.7-3.7c-2,0-3.7,1.7-3.7,3.7l0,0l0,0C59.1,194.1,60.8,195.8,62.8,195.8z"/>
	<path d="M39.2,195.8c2,0,3.7-1.7,3.7-3.7s-1.7-3.7-3.7-3.7s-3.7,1.7-3.7,3.7l0,0l0,0C35.5,194.1,37.2,195.8,39.2,195.8z"/>
	<path d="M42.8,199.1c-1.5-1.2-2.8-1-4.5-1c-2.5,0-4.6,2-4.6,4.5v7.3c0,1.1,0.9,2,2,2c4.7,0,4.1,0.1,4.1-0.2
		C39.9,206.5,39.3,202.7,42.8,199.1z"/>
	<path d="M52.6,198.1c-2.9-0.2-5.5,0-7.7,1.8c-3.7,3-3,6.9-3,11.8c0,1.3,1,2.4,2.3,2.4c0,0,0,0,0,0h0.1c14.2,0,14.7,0.5,15.6-1.4
		c0.3-0.6,0.2-0.4,0.2-6.5C60.1,201.4,55.9,198.1,52.6,198.1z"/>
	<path d="M63.6,198.1c-1.7,0-3-0.2-4.5,1c3.5,3.6,2.9,7.1,2.9,12.6c0,0.3-0.5,0.2,4.1,0.2c1.1,0,2-0.9,2-2v-7.3
		c0.1-2.4-1.8-4.4-4.2-4.5C63.8,198.1,63.7,198.1,63.6,198.1z"/>
	<circle class="st23" cx="150.8" cy="350.8" r="7"/>
</g>
</svg>
