<?xml version="1.0" encoding="utf-8"?>
<!-- Generator: Adobe Illustrator 24.1.0, SVG Export Plug-In . SVG Version: 6.00 Build 0)  -->
<svg version="1.1" id="Capa_1" xmlns="http://www.w3.org/2000/svg" xmlns:xlink="http://www.w3.org/1999/xlink" x="0px" y="0px"
	 viewBox="0 0 772 614" style="enable-background:new 0 0 772 614;" xml:space="preserve">
<style type="text/css">
	.st0{fill:#FBCEB6;}
	.st1{fill:#FFFFFF;}
	.st2{fill:#F47E14;}
	.st3{fill:#E8CBAC;}
	.st4{opacity:0.8;}
	.st5{opacity:0.5;fill:none;stroke:#FF0000;stroke-width:21;stroke-miterlimit:10;enable-background:new    ;}
	.st6{opacity:0.5;fill:none;stroke:#F29694;stroke-width:15;stroke-miterlimit:10;enable-background:new    ;}
	.st7{opacity:0.5;fill:none;stroke:#FF0000;stroke-width:32;stroke-miterlimit:10;enable-background:new    ;}
	.st8{opacity:0.75;}
	.st9{opacity:0.75;fill:#F7A8A4;enable-background:new    ;}
	.st10{fill:#465291;}
	.st11{fill:#7177B5;}
	.st12{fill:#272556;}
	.st13{opacity:0.5;fill:#FFF2DC;enable-background:new    ;}
	.st14{fill:#263568;}
	.st15{fill:#2E2E43;}
	.st16{fill:#88E81E;}
	.st17{fill:#FF0000;}
	.st18{fill:#FFF8EE;}
	.st19{fill:#F7AC3B;}
	.st20{fill:#F2D970;}
	.st21{fill:#BF4000;}
	.st22{fill:#BFC3E2;}
	.st23{fill:#8763EE;}
	.st24{fill:#FF7A59;}
	.st25{fill:#FF9E01;}
	.st26{clip-path:url(#SVGID_2_);}
	.st27{fill:#EE8266;}
	.st28{fill:#54578C;}
	.st29{fill:#EE9983;}
	.st30{fill:#DB6852;}
	.st31{fill:#1A1A47;}
	.st32{fill:#42477A;}
	.st33{fill:#020202;}
</style>
<g>
	<g id="Layer_1">
		<path class="st0" d="M89.8,523.8L2.2,591.1l457.3,10.4H772v-12.7l-75.7-66.8L89.8,523.8z"/>
		<path class="st0" d="M570.5,590.3H27.6v23.2h542.8v-23.2H570.5z"/>
		<path class="st0" d="M772,590.2H386.4V614H772V590.2z"/>
		<path class="st1" d="M769.8,591.6H2.2c-1.2,0-2.2-0.6-2.2-1.5c0-0.7,1-1.5,2.2-1.5h767.5c1.2,0,2.3,0.6,2.3,1.5
			S771,591.6,769.8,591.6z"/>
		<path class="st2" d="M321.8,21.9c0,0-0.8-0.9-1.8-2c-1.1-1.2-2.4-2.9-3.9-4.5c-0.8-0.9-1.4-1.7-2.1-2.3c-0.5-0.7-1-1.5-1.4-2.3
			c-0.5-0.8-0.9-1.6-1.1-2.5l0.1-0.1c0.8,0.5,1.5,1.2,2.1,1.9c0.7,0.6,1.3,1.4,1.9,2.1c0.7,0.9,1.1,1.8,1.8,2.7
			c1.2,1.9,2.3,3.6,3.2,5s1.4,2.2,1.4,2.2H321.8L321.8,21.9z"/>
		<path class="st2" d="M348.9,14.8c0,0,0.1-1,0.2-2.3s0.3-3.3,0.7-5.2c0.1-1,0.1-1.9,0.2-2.8c0.1-0.8,0.3-1.6,0.7-2.3
			c0.6-1.3,1-2.2,1-2.2h0.1c0.1,0.8,0.2,1.7,0.1,2.5c0,0.9-0.1,1.7-0.2,2.5c-0.1,0.9-0.6,1.8-0.8,2.8c-0.6,1.9-0.9,3.8-1.2,5.1
			c-0.2,0.7-0.4,1.5-0.7,2.2L348.9,14.8z"/>
		<path class="st2" d="M309.7,44.5h-2.3c-1.4,0-3.3-0.1-5.2-0.1c-0.9,0-1.8,0-2.8-0.1c-0.8,0-1.6-0.2-2.3-0.6
			c-0.8-0.2-1.6-0.5-2.3-0.9v-0.1c0.8-0.2,1.5-0.3,2.3-0.3h2.4c0.9,0.1,1.9,0.3,2.8,0.6c1.9,0.3,3.8,0.7,5.2,0.9
			c0.8,0.1,1.6,0.3,2.3,0.6L309.7,44.5z"/>
		<path class="st3" d="M311,31.4c0,0-2.4-1-4.9-2.2c-0.6-0.2-1.2-0.5-1.8-0.9c-0.4-0.3-1-0.8-1.3-1c-0.4-0.4-0.8-0.8-1.1-1.3
			l0.1-0.1c0.6,0,1.2,0.1,1.8,0.3c0.6,0.2,1.2,0.4,1.7,0.8c0.6,0.3,1,0.8,1.7,1.1c2.1,1.5,4.2,3.2,4.2,3.2L311,31.4z"/>
		<path class="st3" d="M335.1,13c0,0-1-2.5-2-5c-0.2-0.6-0.5-1.3-0.8-1.9c-0.1-0.6-0.2-1.2-0.2-1.8c0-0.6,0-1.2,0.1-1.8h0.1
			c0.4,0.5,0.8,1,1,1.5c0.3,0.5,0.5,1.1,0.7,1.7c0.1,0.7,0.2,1.2,0.3,2c0.6,2.7,0.9,5.3,0.9,5.3L335.1,13z"/>
		<g class="st4">
			<path class="st5" d="M182.7,106.2c45.1,2.9,79.4,41.8,76.6,86.9s-41.8,79.4-86.9,76.6c-29.4-1.9-55.6-19.4-68.5-45.9"/>
			<path class="st6" d="M134.9,118.1c14.3-8.8,31-12.9,47.8-11.8"/>
			<path class="st7" d="M95.8,182.7c1.7-26.6,16.2-50.8,39-64.7"/>
			<path class="st6" d="M103.8,223.8c-6.2-12.7-9-26.9-8.1-41"/>
		</g>
		<g class="st8">
			<g class="st8">
				<path class="st9" d="M608.3,252.4c2.9,4.2,8.6,5.4,12.9,2.7l3.6-2.5c2.6-1.7,6.1-0.9,7.7,1.7c0.8,1.2,1,2.6,0.8,4l-1,4.3
					c-0.9,5,2.3,9.9,7.3,11.1l13.7,2.7c5,0.9,9.9-2.3,11.1-7.3l1-4.3c0.6-3,3.5-5,6.5-4.4c1.5,0.3,2.8,1.2,3.6,2.4l2.5,3.6
					c2.9,4.3,8.6,5.4,12.9,2.6c0,0,0,0,0,0l11.8-7.7c4.2-2.9,5.4-8.6,2.7-12.9l-2.5-3.6c-1.7-2.6-0.9-6.1,1.7-7.7
					c1.2-0.8,2.6-1,4-0.8l4.2,1c5,0.9,9.9-2.3,11.1-7.3l2.7-13.7c0.9-5-2.3-9.9-7.3-11.1l-4.2-1c-3-0.6-4.9-3.4-4.4-6.4
					c0.3-1.5,1.2-2.8,2.5-3.7l3.6-2.5c4.2-2.9,5.4-8.7,2.5-12.9l-7.7-11.8c-2.9-4.2-8.7-5.4-12.9-2.5l-3.6,2.5
					c-2.6,1.7-6.1,0.9-7.7-1.7c-0.8-1.2-1-2.6-0.8-4l1-4.2c0.9-5-2.3-9.9-7.3-11.1l-13.7-2.7c-5-0.9-9.9,2.3-11.1,7.3l-1,4.2
					c-0.6,3-3.4,4.9-6.4,4.4c-1.5-0.3-2.8-1.2-3.7-2.5l-2.5-3.6c-2.9-4.2-8.6-5.4-12.9-2.7l-11.8,7.7c-4.2,2.9-5.4,8.6-2.7,12.9
					l2.5,3.6c1.7,2.6,0.9,6.1-1.7,7.7c-1.2,0.8-2.6,1-4,0.8l-4.2-1c-5-0.9-9.9,2.3-11.1,7.3l-2.7,13.7c-0.9,5,2.3,9.9,7.3,11.1
					l4.2,1c3,0.6,4.9,3.4,4.4,6.4c-0.3,1.5-1.2,2.8-2.5,3.7l-3.6,2.5c-4.2,2.9-5.4,8.7-2.5,12.9L608.3,252.4z M640.1,201.2
					c10.8-20.7,39.6-14.9,41.3,8.3c0.3,3-0.4,6-1.8,8.7c-10.8,20.7-39.6,14.9-41.3-8.3C638.1,206.9,638.7,203.9,640.1,201.2z"/>
				<path class="st9" d="M542.9,269.8c-0.3,2.6,1.4,5,3.9,5.7l5.4,1.8c2.2,0.7,3.9,2.6,4.1,5c0,0.7,0.1,1.3,0.2,2
					c0.3,2.3-0.9,4.5-2.9,5.6l-5.2,2.7c-2.4,1.2-3.6,3.9-2.9,6.4c0.9,2.7,3.8,4.1,6.4,3.2c0.3-0.1,0.5-0.2,0.7-0.3l5.6-2.9
					c2.1-1,4.5-0.6,6.2,1c0.3,0.3,1,0.8,1.3,1.1c1.9,1.5,2.6,4,1.8,6.2l-1.8,5.4c-0.9,2.5,0.2,5.3,2.5,6.5c2.7,1.2,5.8,0,7-2.7
					c0.1-0.1,0.1-0.3,0.2-0.4l1.8-5.7c0.7-2.2,2.6-3.9,5-4.1c0.6,0,1.3-0.1,1.9-0.2c2.3-0.3,4.5,0.9,5.6,2.9l2.7,5.2
					c1.2,2.4,3.9,3.6,6.4,2.9c2.7-0.9,4.1-3.8,3.2-6.4c-0.1-0.3-0.2-0.5-0.3-0.7l-2.9-5.6c-1-2.1-0.6-4.5,1-6.2
					c0.3-0.3,0.8-1,1.1-1.3c1.5-1.9,4-2.6,6.2-1.8l5.4,1.8c2.5,0.9,5.3-0.2,6.5-2.5c1.2-2.7,0-5.8-2.7-7c-0.1-0.1-0.3-0.1-0.4-0.2
					l-5.7-1.8c-2.2-0.7-3.9-2.6-4.1-5c0-0.7-0.1-1.3-0.2-2c-0.3-2.3,0.9-4.5,2.9-5.6l5.2-2.7c2.4-1.2,3.6-3.9,2.9-6.4
					c-0.9-2.7-3.8-4.1-6.4-3.2c-0.3,0.1-0.5,0.2-0.7,0.3l-5.6,2.9c-2.1,1-4.5,0.6-6.2-1c-0.3-0.4-1-0.8-1.3-1.2
					c-1.9-1.5-2.6-4-1.8-6.2l1.8-5.4c0.9-2.5-0.2-5.3-2.5-6.5c-2.7-1.2-5.8,0-7,2.7c-0.1,0.1-0.1,0.3-0.2,0.4l-1.8,5.7
					c-0.7,2.2-2.6,3.9-5,4.1c-0.6,0-1.3,0.1-1.9,0.2c-2.3,0.3-4.5-0.9-5.6-2.9l-2.7-5.2c-1.2-2.4-3.9-3.6-6.4-2.9
					c-2.7,0.9-4.1,3.8-3.2,6.4c0.1,0.3,0.2,0.5,0.3,0.7l2.9,5.6c1,2.1,0.6,4.5-1,6.2c-0.3,0.3-0.8,1-1.1,1.3c-1.5,1.9-4,2.6-6.2,1.8
					l-5.7-1.8c-2.7-0.9-5.6,0.7-6.5,3.4C543,269.3,542.9,269.6,542.9,269.8z M569,274.5c8.5-12.9,26.9-7,26.3,8.5
					c0,1.9-0.6,3.7-1.8,5.2c-8.5,12.9-26.9,7-26.3-8.5C567.2,277.8,567.8,275.9,569,274.5L569,274.5z"/>
				<path class="st9" d="M469.1,205.6c1.2,1,2.9,1.4,4.4,1l15.3-3.3c2.4-0.5,4.8,0.5,6,2.7c1.3,2.4,2.9,4.6,4.6,6.7
					c1.6,1.9,1.7,4.6,0.3,6.6l-8.5,12.9c-0.8,1.3-1.1,2.9-0.8,4.4c2.9,9.3,12.7,9.5,16.6,3.4l7.3-11.4c1.4-2,3.8-3,6.2-2.3
					c2.6,0.7,5.3,1.2,8.1,1.3c2.5,0.2,4.5,2,5,4.4l3.3,15.3c0.3,1.5,1.3,2.9,2.7,3.6c8.5,4.4,15.7-2.3,14.3-9.3l-2.9-13.4
					c-0.5-2.4,0.5-4.8,2.7-6c2.4-1.3,4.6-2.9,6.7-4.6c1.8-1.6,4.5-1.7,6.5-0.3l12.9,8.5c1.3,0.8,2.9,1.1,4.4,0.8
					c9.3-2.9,9.5-12.7,3.4-16.6l-11.4-7.3c-2-1.4-3-3.8-2.3-6.2c0.7-2.6,1.2-5.3,1.3-8.1c0.2-2.5,2-4.5,4.4-5l15.3-3.3
					c1.5-0.3,2.9-1.3,3.6-2.7c4.4-8.5-2.3-15.7-9.3-14.3l-13.4,2.9c-2.4,0.5-4.8-0.5-6-2.7c-1.3-2.4-2.9-4.6-4.6-6.7
					c-1.6-1.8-1.7-4.5-0.3-6.5l8.5-12.9c0.8-1.3,1.1-2.9,0.8-4.4c-2.9-9.3-12.7-9.5-16.6-3.4l-7.3,11.4c-1.4,2-3.8,3-6.2,2.3
					c-2.6-0.7-5.3-1.2-8.1-1.3c-2.5-0.2-4.5-2-5-4.4l-3.3-15.3c-0.3-1.5-1.3-2.9-2.7-3.6c-8.5-4.4-15.7,2.3-14.3,9.3l2.9,13.4
					c0.5,2.4-0.5,4.8-2.7,6c-2.4,1.3-4.6,2.9-6.7,4.6c-1.8,1.6-4.5,1.7-6.5,0.4l-12.9-8.5c-1.3-0.8-2.9-1.1-4.4-0.8
					c-9.3,2.9-9.5,12.7-3.4,16.6l11.4,7.3c2,1.4,3,3.8,2.3,6.2c-0.7,2.6-1.2,5.3-1.3,8.1c-0.2,2.5-2,4.5-4.4,5l-13.4,2.9
					C464.6,190.3,461.3,199.9,469.1,205.6z M498.6,181.8c4.6-33.5,46-42.3,64-13.7c3.7,5.9,5.2,12.8,4.2,19.7
					c-4.6,33.5-46,42.3-64,13.7C499.2,195.6,497.7,188.7,498.6,181.8L498.6,181.8z"/>
			</g>
		</g>
		<path class="st10" d="M658,560.9H90.2c-15.1,0-22-18.9-10.4-28.7l77.5-65.2h433.8l77.5,65.2C680.1,542,673.1,560.9,658,560.9z"/>
		<path class="st11" d="M658,549.3H90.2c-15.1,0-22-18.9-10.4-28.7l77.5-65.2h433.8l77.5,65.2C680.1,530.4,673.1,549.3,658,549.3z"
			/>
		<path class="st12" d="M151.8,446.8V200c0-5.7,4.6-10.4,10.4-10.5H586c5.8,0,10.4,4.7,10.4,10.5v246.8c0,5.7-4.6,10.4-10.4,10.5
			H162.2c-5.7,0-10.4-4.6-10.4-10.3C151.8,446.9,151.8,446.9,151.8,446.8z"/>
		<path class="st1" d="M584.8,207.1v238.5H163.3V207.1H584.8z"/>
		<path class="st13" d="M584.8,445.7v-34c-126.5,11.8-303.2-149-421.5-159.9v194L584.8,445.7L584.8,445.7z"/>
		<path class="st10" d="M553,472.3h32.3l-6.9-6.1c-0.1-0.1-0.2-0.2-0.2-0.3H547L553,472.3z"/>
		<path class="st10" d="M481.9,472.3h32.8l-4.8-6.2c0-0.1,0-0.2-0.1-0.2h-31.7L481.9,472.3z"/>
		<path class="st10" d="M527,488.8l-4.4-6.1h-34.8l3.3,6.1H527L527,488.8z"/>
		<path class="st10" d="M565.3,488.8l-5.6-6.1h-34.6l4.4,6.1H565.3z"/>
		<path class="st10" d="M603.8,488.8l-6.9-6.1h-34.2l5.6,6.1H603.8L603.8,488.8z"/>
		<path class="st10" d="M517.4,472.3H550l-5.7-6.1c-0.1,0-0.1-0.1-0.1-0.2h-31.5L517.4,472.3z"/>
		<path class="st10" d="M227.5,480.5h34.4l3.4-6.1h-33.3L227.5,480.5z"/>
		<path class="st10" d="M301.4,474.4h-33.5l-3.4,6.1h34.6L301.4,474.4z"/>
		<path class="st10" d="M446.3,472.3h33.1l-3.6-6.3v-0.1h-31.8L446.3,472.3z"/>
		<path class="st10" d="M375.3,472.3h33.3l-1.2-6.5h-31.9L375.3,472.3z"/>
		<path class="st10" d="M375.1,488.8h36.6l-1.1-6.1h-35.3L375.1,488.8z"/>
		<path class="st10" d="M190.7,480.5h34l4.6-6.1h-32.9L190.7,480.5z"/>
		<path class="st10" d="M375.3,474.4l-0.1,6.1h34.9l-1.1-6.1H375.3z"/>
		<path class="st10" d="M488.5,488.8l-3.3-6.1h-35l2.1,6.1H488.5L488.5,488.8z"/>
		<path class="st10" d="M450.1,488.8l-2.2-6.1h-35l1.1,6.1H450.1z"/>
		<path class="st10" d="M410.8,472.3h33.1l-2.3-6.5h-31.9L410.8,472.3z"/>
		<path class="st10" d="M337.6,472.3l1.2-6.5h-31.9l-2.4,6.5H337.6L337.6,472.3z"/>
		<path class="st10" d="M483.1,474.4l3.3,6.1h34.5l-4.6-6.1H483.1z"/>
		<path class="st10" d="M594.6,480.5l-6.9-6.1h-32.7l5.6,6.1H594.6z"/>
		<path class="st10" d="M480.6,474.4H447l2.2,6.1h34.7L480.6,474.4z"/>
		<path class="st10" d="M519,474.4l4.6,6.1h34l-5.6-6.1H519z"/>
		<path class="st10" d="M447,480.5l-2.1-6.1h-33.6l1.1,6.1H447L447,480.5z"/>
		<path class="st10" d="M212.2,497l4.6-6h-36l-6,6.2h37.3C212.1,497.1,212.1,497,212.2,497z"/>
		<path class="st10" d="M238.6,466.1l-4.8,6.2h32.8l3.8-6.5h-31.7C238.7,465.9,238.7,466.1,238.6,466.1z"/>
		<path class="st10" d="M172,496.9l5.7-6H142l-7.1,6.2h37C171.8,497,171.9,497,172,496.9z"/>
		<path class="st10" d="M170.2,466.3l-7,6.1h32.4l6.1-6.5h-31.2C170.4,466,170.3,466.1,170.2,466.3z"/>
		<path class="st10" d="M204.3,466.1l-5.9,6.1h32.6l5-6.5h-31.6C204.5,466,204.5,466.1,204.3,466.1z"/>
		<path class="st10" d="M252.4,497.1l3.6-6.1h-36.3l-4.8,6.2L252.4,497.1z"/>
		<path class="st10" d="M489.8,490.9H258.4l-3.6,6.2h238.4L489.8,490.9z"/>
		<path class="st10" d="M567.4,490.9h-36.1l4.4,6.1c0,0.1,0,0.2,0.1,0.2h37.3L567.4,490.9z"/>
		<path class="st10" d="M606.2,490.9h-35.8l5.6,6c0.1,0,0.1,0.1,0.1,0.2h37L606.2,490.9z"/>
		<path class="st10" d="M528.5,490.9h-36.5l3.4,6.1v0.1h37.6L528.5,490.9z"/>
		<path class="st10" d="M144.3,488.8h35.5l5.7-6.1h-34.2L144.3,488.8z"/>
		<path class="st10" d="M260.6,482.6h-34.7l-4.8,6.1H257L260.6,482.6z"/>
		<path class="st10" d="M298.1,482.6h-34.9l-3.4,6.1h36L298.1,482.6z"/>
		<path class="st10" d="M272.7,466l-3.6,6.3h33.1l2.4-6.5L272.7,466C272.9,465.8,272.9,466,272.7,466z"/>
		<path class="st10" d="M223.1,482.6h-34.6l-5.9,6.1h35.7L223.1,482.6z"/>
		<path class="st10" d="M153.8,480.5h33.8l5.9-6.1h-32.7L153.8,480.5z"/>
		<path class="st10" d="M335.5,482.6h-35l-2.3,6.1h36.3L335.5,482.6z"/>
		<path class="st10" d="M373.1,474.4h-33.6l-1.2,6.1h34.8L373.1,474.4L373.1,474.4z"/>
		<path class="st10" d="M373.2,465.8h-32.1l-1.2,6.5h33.2L373.2,465.8z"/>
		<path class="st10" d="M372.9,482.6h-35.2l-1.1,6.1h36.3V482.6z"/>
		<path class="st10" d="M337.3,474.4h-33.6l-2.3,6.1H336L337.3,474.4z"/>
		<path class="st14" d="M471.2,537c-0.4,0.9-1,1.5-1.9,1.9c0.3-1.2,0-2.5-0.8-3.5l-19.2-25.6c-0.8-1.1-2.1-1.7-3.4-1.8H298
			c-1.4,0-2.6,0.7-3.4,1.8l2.2-3c0.8-1.1,2.1-1.8,3.4-1.8h147.7c1.4,0,2.6,0.7,3.4,1.8l19.2,25.6C471.6,533.6,471.9,535.5,471.2,537
			z"/>
		<path class="st10" d="M469.3,538.9c-0.6,0.3-1.3,0.5-2,0.6H280.9c-1.6,0-3.1-0.9-3.9-2.3c-0.7-1.3-0.6-2.9,0.2-4.2l17.2-23
			c0.8-1.1,2.1-1.7,3.4-1.8h147.6c1.4,0,2.6,0.7,3.4,1.8l19.2,25.8C469.1,536.5,469.5,537.7,469.3,538.9z"/>
		<path class="st10" d="M380.1,199c0,3.3-2.7,6-6,6s-6-2.7-6-6c0-3.3,2.7-6,6-6c3.2-0.1,5.9,2.5,6,5.8
			C380.1,198.8,380.1,198.9,380.1,199z"/>
		<path class="st15" d="M374.1,202.1c1.7,0,3.1-1.4,3.1-3.1c0-1.7-1.4-3.1-3.1-3.1c-1.7,0-3.1,1.4-3.1,3.1c0,1.7,1.3,3.1,2.9,3.1
			C374,202.1,374.1,202.1,374.1,202.1z"/>
		<path class="st16" d="M387.8,199c0,0.7-0.5,1.2-1.2,1.2s-1.2-0.5-1.2-1.2c0-0.7,0.6-1.2,1.2-1.2c0.6-0.1,1.1,0.2,1.2,0.8
			C387.8,198.7,387.8,198.8,387.8,199z"/>
		<path class="st3" d="M498,210.6c0.3,0.2,0.6,0.5,0.9,0.7c0.9,0.5,1.7,1.1,2.4,1.8c3.2,2.3,6.2,4.8,9.1,7.5
			c1.9,1.8,3.8,3.9,5.9,6.1c2.1,2.5,4.1,5.2,6,8c2.1,3.2,4.1,6.5,5.9,9.9c1.9,3.8,3.5,7.8,4.9,11.8c1.5,4.5,2.7,9,3.6,13.6
			c1.8,10.2,2.2,20.5,1.3,30.8c-0.5,5.6-1.4,11.1-2.9,16.5c-2.8,11.3-7.1,22.1-12.8,32.3c-3,5.2-6.3,10.2-9.8,14.9
			c-3.5,4.8-7.4,9.4-11.6,13.7c-8.5,8.6-18.2,15.9-28.7,21.8c-10.1,5.6-20.8,9.9-31.9,12.9c-10.4,2.8-21.1,4.4-31.8,4.6
			c-9.8,0.3-19.5-0.9-28.9-3.8c-4.2-1.3-8.3-3-12.2-5.2c-3.5-2.1-6.7-4.6-9.4-7.6c-4.6-4.8-7.4-11-8-17.6c-0.2-2.3-0.2-4.7,0.1-7
			c0.1-1,0.2-1.9,0.3-2.8c0.1-0.8,0.3-1.5,0.6-2.2c0.2-1,0.5-2,0.9-3l0.3-1l1,0.2c-0.1,0.3-0.2,0.7-0.2,1c-0.1,0.7-0.3,1.7-0.6,3
			c-0.5,3.7-0.5,7.5,0.2,11.2c0.5,2.7,1.4,5.2,2.7,7.6c1.5,2.8,3.4,5.4,5.7,7.5c4.9,4.8,11.9,8.2,20.1,10.2c8.8,2.1,17.9,2.8,27,2.1
			c10.1-0.8,20.1-2.6,29.7-5.5c10.4-3.2,20.3-7.5,29.7-12.8c9.7-5.5,18.6-12.4,26.3-20.5c7.8-8,14.6-16.9,20.2-26.5
			c5.5-9.3,9.7-19.3,12.7-29.7c2.7-9.8,4.1-19.8,4.2-30c0-9.1-1.1-18.1-3.4-26.9c-2-7.4-4.9-14.5-8.6-21.1
			c-4.7-8.5-10.8-16.2-18-22.8c-1-0.9-1.8-1.5-2.2-2c-0.2-0.3-0.5-0.5-0.8-0.7L498,210.6z"/>
		<path class="st17" d="M434.8,113.7l61.1,2.2l5.4,10.2l-42.7,24.1"/>
		<path class="st17" d="M399.2,145.5l-4.9,61l9.6,6.5l28.9-39.5"/>
		<path class="st3" d="M367,47.3L353.8,59l-13.3,11.7c0,0-2.1,20.1,28.2,54.6c30.3,34.4,69.1,59.9,69.1,59.9l15.3-13.4l15.3-13.4
			c0,0-20.5-41.7-50.7-76.2C387.3,47.8,367,47.3,367,47.3z"/>
		<path class="st18" d="M390.9,100.9c5.6-4.9,6.1-13.4,1.2-19s-13.4-6.1-19-1.2c-5.6,4.9-6.1,13.4-1.2,19c0,0,0,0,0,0
			C376.8,105.3,385.3,105.8,390.9,100.9C390.9,100.9,390.9,100.9,390.9,100.9z"/>
		<path class="st17" d="M392.8,103.1c6.8-6,7.4-16.3,1.4-23.1s-16.3-7.4-23.1-1.4c-6.8,6-7.4,16.3-1.4,23.1c0,0,0,0,0,0
			C375.6,108.5,385.9,109.1,392.8,103.1C392.7,103.2,392.8,103.2,392.8,103.1z M374.4,82.4c4.7-4.2,11.9-3.7,16,1
			c4.2,4.7,3.7,11.9-1,16c-4.7,4.2-11.9,3.7-16-1C369.4,93.7,369.8,86.5,374.4,82.4z"/>
		<path class="st18" d="M413.2,125.9c2.7-2.4,3-6.5,0.7-9.2c-2.4-2.7-6.5-3-9.2-0.7c-2.7,2.3-3,6.4-0.7,9.2c2.1,2.7,6,3.2,8.7,1
			C413,126.2,413.1,126,413.2,125.9z"/>
		<path class="st17" d="M414.2,127c3.3-2.9,3.6-7.9,0.8-11.2c0,0-0.1-0.1-0.1-0.1c-2.9-3.2-7.9-3.4-11.1-0.4
			c-3.2,2.9-3.4,7.9-0.4,11.1C406.3,129.5,411,129.7,414.2,127z M405.4,117.1c2.3-2,5.7-1.8,7.7,0.4s1.8,5.7-0.4,7.7
			c-2.3,2-5.7,1.8-7.7-0.4c-2-2.1-2-5.4,0.1-7.4C405.2,117.3,405.3,117.2,405.4,117.1L405.4,117.1z"/>
		<path class="st18" d="M432.9,148.1c2.7-2.4,3-6.5,0.7-9.2c-2.4-2.7-6.5-3-9.2-0.7c-2.7,2.3-3,6.4-0.7,9.2c2.3,2.7,6.3,3.1,9,0.8
			C432.8,148.2,432.9,148.2,432.9,148.1z"/>
		<path class="st17" d="M433.9,149.2c3.3-2.9,3.6-8,0.7-11.3c-2.9-3.3-8-3.6-11.3-0.7l0,0c-3.2,2.7-3.6,7.6-0.9,10.8
			c0.1,0.1,0.1,0.2,0.2,0.2C425.5,151.7,430.5,152.1,433.9,149.2C433.8,149.3,433.9,149.3,433.9,149.2z M425,139.1
			c2.3-2,5.7-1.8,7.7,0.4s1.8,5.7-0.4,7.7c-2.3,2-5.7,1.8-7.7-0.4C422.5,144.6,422.7,141.1,425,139.1
			C424.9,139.1,424.9,139.1,425,139.1L425,139.1z"/>
		<path class="st19" d="M443.9,183.2l23.9-19.7c10.4,7.7,18.3,18.2,22.8,30.3c0,0-3.8-1.2-8.8-2.4c0,0,4.9,6.6,5.2,17.8
			C487,209.3,465.7,216.9,443.9,183.2z"/>
		<path class="st20" d="M446.2,181.3l18.9-15.6c8.3,5.2,14.6,13,17.8,22.2c-2.5-0.5-4.9-1.2-7.3-2.1c2.7,4.9,4.3,10.3,4.6,15.8
			C480.1,201.6,463.3,207.6,446.2,181.3z"/>
		<path class="st21" d="M471.7,156.7c0.8,1,0.8,2.4-0.1,3.3l-32.9,29.3c-0.9,0.9-2.4,0.8-3.3-0.1s-0.8-2.4,0.1-3.3l32.9-29.3
			c0.8-0.9,2.2-0.9,3.1-0.1C471.6,156.6,471.7,156.7,471.7,156.7z"/>
		<path class="st17" d="M339.1,74.4l-12-45.9l44,17.8L339.1,74.4z"/>
		<path class="st21" d="M373.4,46.5c0.7,0.7,0.6,1.8-0.1,2.5c0,0,0,0,0,0l-31.8,28.1c-0.6,0.6-1.7,0.6-2.3,0c0,0-0.1-0.1-0.1-0.1
			c-0.7-0.7-0.6-1.8,0.1-2.5c0,0,0,0,0,0L371,46.4c0.6-0.6,1.7-0.7,2.3,0C373.4,46.4,373.4,46.5,373.4,46.5z"/>
		<path class="st22" d="M196.7,248.8h257.6c7.9,0,14.4,6.4,14.4,14.3c0,0,0,0,0,0.1l0,0c0,7.9-6.4,14.4-14.3,14.4c0,0,0,0-0.1,0
			H196.7c-7.9,0-14.4-6.4-14.4-14.3c0,0,0,0,0-0.1l0,0C182.3,255.3,188.7,248.8,196.7,248.8C196.7,248.8,196.7,248.8,196.7,248.8z"
			/>
		<path class="st22" d="M189.5,306.3h217.8c4,0,7.2,3.2,7.2,7.2c0,0,0,0,0,0l0,0c0,4-3.2,7.2-7.2,7.2c0,0,0,0,0,0H189.5
			c-4,0-7.2-3.2-7.2-7.2c0,0,0,0,0,0l0,0C182.3,309.5,185.5,306.3,189.5,306.3C189.5,306.3,189.5,306.3,189.5,306.3z"/>
		<path class="st22" d="M189.5,341.7h169.1c4,0,7.2,3.2,7.2,7.2c0,0,0,0,0,0l0,0c0,4-3.2,7.2-7.2,7.2c0,0,0,0,0,0H189.5
			c-4,0-7.2-3.2-7.2-7.2c0,0,0,0,0,0l0,0C182.3,344.9,185.5,341.7,189.5,341.7C189.5,341.7,189.5,341.7,189.5,341.7z"/>
		
			<image style="overflow:visible;opacity:0.2;enable-background:new    ;" width="119" height="119" xlink:href="FBB8BE6B.png"  transform="matrix(1 0 0 1 64 330.357)">
		</image>
		<path class="st1" d="M88.4,338.4h70.7c4.9,0,8.8,4,8.8,8.8v70.7c0,4.9-4,8.8-8.8,8.8H88.4c-4.9,0-8.8-4-8.8-8.8v-70.7
			C79.5,342.3,83.5,338.4,88.4,338.4z"/>
		
			<image style="overflow:visible;opacity:0.2;enable-background:new    ;" width="151" height="181" xlink:href="FBB8BE69.png"  transform="matrix(1 0 0 1 545 59.357)">
		</image>
		<path class="st1" d="M675.1,217.9h-109c-3.3-0.1-5.9-2.9-5.7-6.2c0,0,0,0,0,0V74.4c-0.1-3.3,2.4-6.1,5.7-6.2c0,0,0,0,0,0h109
			c3.3,0.1,5.9,2.9,5.7,6.2c0,0,0,0,0,0v137.3c0.2,3.2-2.3,6-5.6,6.2C675.2,217.9,675.2,217.9,675.1,217.9z"/>
		<path class="st23" d="M575,79.3c0-1.4,1.1-2.5,2.5-2.5c1.4,0,2.5,1.1,2.5,2.5s-1.1,2.5-2.5,2.5c0,0,0,0,0,0
			C576.1,81.8,575,80.7,575,79.3C575,79.3,575,79.3,575,79.3z"/>
		<path class="st24" d="M583.5,79.3c0-1.4,1.1-2.5,2.5-2.5c1.4,0,2.5,1.1,2.5,2.5s-1.1,2.5-2.5,2.5l0,0
			C584.6,81.8,583.5,80.7,583.5,79.3C583.5,79.3,583.5,79.3,583.5,79.3z"/>
		<path class="st25" d="M566.4,79.3c0-1.4,1.1-2.5,2.5-2.5c1.4,0,2.5,1.1,2.5,2.5s-1.1,2.5-2.5,2.5l0,0
			C567.6,81.8,566.5,80.7,566.4,79.3C566.4,79.3,566.4,79.3,566.4,79.3z"/>
		<g>
			<defs>
				<rect id="SVGID_1_" x="592" y="91.3" width="57.1" height="84"/>
			</defs>
			<clipPath id="SVGID_2_">
				<use xlink:href="#SVGID_1_"  style="overflow:visible;"/>
			</clipPath>
			<g class="st26">
				<path class="st27" d="M648.2,166.7v7.1c0,0.8-0.6,1.4-1.3,1.4c0,0-0.1,0-0.1,0h-52.4c-0.8,0-1.4-0.6-1.4-1.3c0,0,0-0.1,0-0.1
					v-7.1c0-5.3,3.1-10.1,7.8-12.3c-1.9-1.5-4.9-3.5-6.9-8c-2.9-6.1-2.4-13.3,1.3-18.9c2.1-3,3.1-6.6,3.1-10.3v-7.8
					c0-10,8.1-18,18-18.1h8.6c9.9,0.1,18,8.2,17.9,18.1c0,8.3-0.2,9.9,0.8,13.3c1.3,4.6,3.3,5.3,4.6,9.9c2.2,7.5-0.3,15.6-6.3,20.6
					l-1.7,1.3C645.2,156.7,648.3,161.4,648.2,166.7z"/>
				<path class="st28" d="M648.2,166.7v7.1c0,0.8-0.6,1.4-1.3,1.4c0,0-0.1,0-0.1,0h-52.4c-0.8,0-1.4-0.6-1.4-1.3c0,0,0-0.1,0-0.1
					v-7.1c0-7.4,6-13.4,13.4-13.5c1.1,0,2.1-0.2,3.1-0.7l0.1,0.1l10.2,8.1c0.5,0.4,1.3,0.4,1.8,0l10.2-8l0.1-0.1
					c1,0.4,2,0.7,3.1,0.7C642.3,153.3,648.2,159.3,648.2,166.7C648.2,166.7,648.2,166.7,648.2,166.7z"/>
				<path class="st29" d="M637,117.7c0.7,0.1,1.3,0.7,1.3,1.4v8.6c0,7.2-4.3,13.7-10.9,16.6c-9.1,3.7-19.4-0.6-23.2-9.6
					c-0.9-2.2-1.4-4.6-1.3-6.9v-8.6c0-0.8,0.5-1.4,1.3-1.4c0.1,0,0.2,0,0.3,0c8.5,0.8,17.1-1.4,24.2-6.2c0.6-0.4,1.4-0.3,1.9,0.2
					c0.1,0.2,0.2,0.3,0.2,0.5C631.7,115.7,634.1,117.6,637,117.7z"/>
				<path class="st12" d="M641.9,153.2l-1.7,1.3c-1.7-0.8-3.6-1.2-5.5-1.2c-4.1,0-7.4-3.3-7.5-7.4v-1.3c6.7-2.9,11-9.4,10.9-16.7
					v-8.6c0-0.8-0.5-1.4-1.3-1.4c0,0,0,0,0,0c-3-0.2-5.5-2.4-6.2-5.3c-0.1-0.7-0.8-1.2-1.5-1.1c-0.2,0-0.5,0.1-0.6,0.3
					c-7.1,4.9-15.7,7.1-24.2,6.2c-0.7-0.1-1.4,0.4-1.5,1.2c0,0.1,0,0.2,0,0.3v8.6c0,7.2,4.3,13.7,10.9,16.6v1.3
					c0,4.1-3.3,7.4-7.3,7.4c-0.1,0-0.1,0-0.2,0c-1.9,0-3.8,0.4-5.5,1.2l-1.7-1.3c-7.7-6.2-9.4-17.3-4-25.5c2.1-3,3.1-6.6,3.1-10.3
					v-7.8c-0.2-9.9,7.7-18.1,17.6-18.2c0.1,0,0.2,0,0.3,0h8.6c9.9,0.1,18,8.2,17.9,18.1v7.8c0,3.7,1.1,7.2,3.1,10.3
					C651.4,135.8,649.8,147,641.9,153.2z"/>
				<path class="st30" d="M627.7,147.5c-4.5,1.9-9.6,1.9-14,0c0.2-1,0.3-2,0.2-3v-0.1c4.4,1.8,9.2,1.8,13.6,0v0.1
					C627.3,145.5,627.4,146.5,627.7,147.5z"/>
				<path class="st31" d="M633.1,93.2c0.9,0.5,1.3,1.6,0.8,2.5c-0.3,0.7-1,1-1.8,1c-0.6-0.1-1.2-0.1-1.8-0.1h-8.6
					c-9.9,0.1-18,8.2-17.9,18.1v2.2c0,1.3-0.9,1.3-0.9,2.3c0,9.5,0,9-0.1,9.4c-1.4,4.2-3.2,4.9-4.5,9.4c-0.8,2.4-1,5-0.7,7.5
					c0.1,1-0.7,2-1.7,2c-0.8,0.1-1.6-0.4-1.9-1.2c-2.9-6.1-2.4-13.3,1.3-18.9c2.1-3,3.1-6.6,3.1-10.3v-7.7
					c-0.1-10,7.9-18.1,17.8-18.2c0,0,0,0,0.1,0h8.6C627.8,91.3,630.5,92,633.1,93.2z"/>
				<path class="st27" d="M617.2,139.9c1.3,0.9,1.6,2.6,0.7,3.9c-0.7,1-2,1.4-3.1,1.1c-7.2-2.5-12-9.3-11.9-16.9v-8.6
					c0-0.8,0.5-1.4,1.3-1.4c0.1,0,0.2,0,0.3,0c0.7,0.1,1.4,0.1,2.2,0.2c1.5,0.1,2.6,1.3,2.7,2.8v4.1
					C609.3,131,612.3,136.5,617.2,139.9z"/>
				<path class="st32" d="M612.4,155c0.5,0.4,0.6,1.1,0.2,1.6c-0.2,0.3-0.5,0.5-0.9,0.5c-7.4,0-13.4,6.1-13.4,13.5v4.8h-4
					c-0.8,0-1.4-0.6-1.4-1.3c0,0,0-0.1,0-0.1v-7.2c0-7.4,6-13.4,13.4-13.5c1.1,0,2.1-0.2,3.1-0.7l0.1,0.1L612.4,155z"/>
				<path class="st32" d="M628.8,155c-0.5,0.4-0.6,1.1-0.2,1.6c0.2,0.3,0.5,0.5,0.9,0.5c7.4,0,13.4,6.1,13.4,13.5v4.8h4
					c0.8,0,1.4-0.6,1.4-1.3c0,0,0-0.1,0-0.1v-7.2c0-7.4-6-13.4-13.4-13.5c-1.1,0-2.1-0.2-3.1-0.7l-0.1,0.1L628.8,155z"/>
			</g>
		</g>
		<path class="st3" d="M579.8,187.5h80.4c1.3,0,2.4,1.1,2.4,2.4l0,0c0,1.3-1.1,2.4-2.4,2.4h-80.4c-1.3,0-2.4-1.1-2.4-2.4l0,0
			C577.4,188.6,578.5,187.5,579.8,187.5z"/>
		<path class="st3" d="M590.8,199.6h58.4c1.3,0,2.4,1.1,2.4,2.4l0,0c0,1.3-1.1,2.4-2.4,2.4h-58.4c-1.3,0-2.4-1.1-2.4-2.4l0,0
			C588.3,200.7,589.4,199.6,590.8,199.6z"/>
		<path d="M111.5,379.7c0-1-0.9-1.8-1.9-1.9H99.4c-1,0-1.8,0.9-1.9,1.9v27.4h14v-27.4H111.5z"/>
		<path class="st33" d="M149.7,368.2c0-1.1-0.8-1.9-1.9-2h-10.2c-1.1,0-1.9,0.9-1.9,2v38.9h14v-38.9H149.7L149.7,368.2z"/>
		<path d="M130.6,383.5c0-1-0.9-1.8-1.9-1.9h-10.2c-1,0-1.8,0.9-1.9,1.9V407h14v-23.5H130.6L130.6,383.5z"/>
		<path d="M151.6,410.9h-56c-1-0.1-1.9,0.7-2,1.8s0.7,1.9,1.8,2c0.1,0,0.1,0,0.2,0h56c1,0.1,1.9-0.7,2-1.8s-0.7-1.9-1.8-2
			C151.7,410.9,151.7,410.9,151.6,410.9z"/>
		<path d="M106.9,371.4L106.9,371.4c3.7-0.3,7.3-1.2,10.8-2.4c8-2.7,15.3-7,21.6-12.7l0.2-0.2v3c0,1.1,0.9,1.9,2,1.9
			c1,0.1,1.9-0.7,2-1.8c0,0,0-0.1,0-0.1v-7.5c0-1.1-0.9-1.9-2-1.9h-7.8c-1-0.1-1.9,0.7-2,1.8c0,0,0,0.1,0,0.1c0,1.1,0.9,1.9,2,1.9
			h3.1c-5.7,5.3-12.6,9.3-20,11.7c-3.2,1.1-6.5,1.8-9.8,2.2c-1.2,0.2-2,0.9-1.8,2.1c-0.2,0.9,0.5,1.8,1.4,2
			C106.7,371.4,106.8,371.4,106.9,371.4z"/>
		<path class="st22" d="M187.9,376.2H319c3.1,0,5.5,3.2,5.5,7.2l0,0c0,4-2.5,7.2-5.5,7.2H187.9c-3.1,0-5.5-3.2-5.5-7.2l0,0
			C182.3,379.4,184.9,376.2,187.9,376.2z"/>
	</g>
</g>
</svg>
